<svg version="1" xmlns="http://www.w3.org/2000/svg" width="933.333" height="933.333" viewBox="0 0 700.000000 700.000000"><path d="M339.5 43.7c-49.9 3-94.6 23.5-128.1 58.6-28.9 30.2-46.4 66.8-51.9 108-1.3 10.3-1.5 39-1.5 231.3v219.5l43.8-.3c48.7-.4 48.1-.3 60-7.5 11.8-7.2 21.3-18.8 25.5-31.2 3.4-10.1 3.8-22.7 3.5-99.8-.4-82.2-.2-79.3-6.7-92.1-4.3-8.5-10.2-15.4-17.4-20.6-9.2-6.6-16-9.1-29.4-11.1l-4.3-.7V386l116.8.2 116.7.3.3 5.6.3 5.7-5.3.7c-23.4 2.9-41.9 17.3-50 38.9l-2.3 6.1-.3 83.2c-.3 92-.4 90 6.1 103.2 4.3 8.9 15.9 20.6 24.8 25 12.1 6 13.3 6.1 59.7 6.1H542l-.1-124.8c-.1-68.6-.5-169.9-.9-225.2-.8-109.2-.6-105.1-6.7-127-19.1-69-75.9-122-146-136.5-10.4-2.2-36.1-4.8-41.8-4.3-1.1.1-4.2.3-7 .5zm27 122.3c48 12.3 69.6 67 42.6 108.2-14.5 22.3-41.7 35-67.8 31.8-16.3-2-30.1-8.8-41.8-20.4-36.7-36.4-23.9-97.7 24.5-117 12.2-4.9 29.4-5.9 42.5-2.6z"/></svg>